<?xml version="1.0"?>
<svg xmlns="http://www.w3.org/2000/svg" viewBox="0 0 24 24" enable-background="new 0 0 24 24">
    <path d="M 7.1875 5.03125 C 5.9702455 4.932062 4.6050297 5.4574703 3.53125 6.53125 C 1.8132025 8.2492975 1.5083714 10.727121 2.875 12.09375 C 3.7587844 12.977534 5.1235627 13.157261 6.4375 12.71875 C 6.1504518 13.419659 6 14.195735 6 15 C 6 18.313708 8.6862915 21 12 21 C 15.313708 21 18 18.313708 18 15 C 18 14.195735 17.849548 13.419659 17.5625 12.71875 C 18.876437 13.157262 20.209965 13.008785 21.09375 12.125 C 22.460379 10.758371 22.186797 8.2492975 20.46875 6.53125 C 18.750703 4.8132025 16.241629 4.5083711 14.875 5.875 C 13.991215 6.7587845 13.842738 8.1235628 14.28125 9.4375 C 13.580341 9.1504518 12.804265 9 12 9 C 11.195735 9 10.419659 9.1504518 9.71875 9.4375 C 10.157261 8.1235627 10.008784 6.7587844 9.125 5.875 C 8.6125143 5.3625143 7.9178527 5.0907628 7.1875 5.03125 z"/>
</svg>
