<?xml version="1.0"?>
<svg xmlns="http://www.w3.org/2000/svg" version="1" viewBox="0 0 24 24" enable-background="new 0 0 24 24">
    <path d="M 12.5 2 C 10.6 2 9 3.6 9 5.5 C 9 7.4 10.6 9 12.5 9 C 14.4 9 16 7.4 16 5.5 C 16 3.6 14.4 2 12.5 2 z M 12.5 9 L 5.5 9 L 5 9 C 3.9 9 3 9.9 3 11 L 3 18 C 3 19.1 3.9 20 5 20 L 15 20 C 16.1 20 17 19.1 17 18 L 17 11 C 17 9.9 16.1 9 15 9 L 12.5 9 z M 5.5 9 C 6.9 9 8 7.9 8 6.5 C 8 5.1 6.9 4 5.5 4 C 4.1 4 3 5.1 3 6.5 C 3 7.9 4.1 9 5.5 9 z M 22 10 L 18 12 L 18 17 L 22 19 L 22 10 z"/>
</svg>
