<?xml version="1.0"?>
<svg xmlns="http://www.w3.org/2000/svg" version="1" viewBox="0 0 24 24" enable-background="new 0 0 24 24">
    <path d="M 21.8125 2 C 21.8125 2 19.99375 3.8125 18.09375 3.8125 L 18 3.8125 C 14.7 7.0125 8.6875 12.8125 8.6875 12.8125 L 2.3125 18.90625 C 1.9125 19.30625 1.9125 19.9125 2.3125 20.3125 L 3.8125 22 C 3.8125 22 7.59375 21.5875 9.09375 20.1875 C 10.40625 18.9625 10.507031 17.598242 11.78125 16 L 13.09375 17.3125 C 14.147133 16.291364 15.058585 15.308031 15.875 14.375 C 16.018303 14.215196 16.1449 14.064557 16.28125 13.90625 C 16.419091 13.744121 16.5251 13.59676 16.65625 13.4375 C 16.319115 14.265084 16 15.137245 16 15.5 C 16 16.3 16.7 17 17.5 17 C 18.3 17 19 16.3 19 15.5 C 19 14.833333 18.097222 12.821759 17.75 12.0625 C 22.473319 5.7231437 21.8125 2 21.8125 2 z M 18.59375 5.1875 C 18.603554 5.1855392 18.615197 5.1895362 18.625 5.1875 C 18.832619 6.1388833 19.15628 7.3726735 18.84375 7.75 C 18.841553 7.754262 18.814703 7.7457334 18.8125 7.75 C 18.661 7.9054 18.38625 7.89375 17.90625 7.59375 C 16.70625 6.79375 16.3875 7.5875 16.6875 8.6875 C 16.893808 9.4668846 16.940278 10.203118 16.875 10.875 C 15.905988 12.218478 14.675 13.696875 13.09375 15.3125 L 10.6875 12.8125 L 18.59375 5.1875 z M 15 19 C 15 19 14 20.4 14 21 C 14 21.6 14.4 22 15 22 C 15.6 22 16 21.6 16 21 C 16 20.4 15 19 15 19 z"/>
</svg>
