<?xml version="1.0"?>
<svg xmlns="http://www.w3.org/2000/svg" viewBox="0 0 24 24" enable-background="new 0 0 24 24">
    <path d="M 9.5 2 C 7.620452 2 6.7280661 5.8010365 6.03125 8.59375 C 3.5971515 9.1409458 2 10.017277 2 11 C 2 11.846031 3.1846369 12.610869 5.0625 13.15625 L 2 17 L 5 18 L 4 22 L 12 22 L 20 22 L 19 18 L 22 17 L 18.9375 13.15625 C 20.815363 12.610869 22 11.846031 22 11 C 22 10.017277 20.402849 9.1409458 17.96875 8.59375 C 17.177092 5.7060926 16.374731 2 14.59375 2 C 13.59375 2 13.1 2.40625 12 2.40625 C 10.9 2.40625 10.5 2 9.5 2 z M 6.25 13.46875 C 6.8008118 13.585307 7.3749521 13.668323 8 13.75 C 8.0782651 15.271779 8.8639848 15.998999 9.90625 16.09375 C 10.70625 16.09375 11.59375 15.69375 11.59375 14.59375 L 11.59375 14 C 11.73244 14.001712 11.859908 14 12 14 C 12.140092 14 12.26756 14.001712 12.40625 14 L 12.40625 14.59375 C 12.40625 15.69375 13.29375 16.19375 14.09375 16.09375 C 15.136015 15.998999 15.921735 15.271779 16 13.75 C 16.613164 13.669876 17.176884 13.582483 17.71875 13.46875 C 18.188422 14.685258 17.435411 15.733038 16.8125 16 C 15.1125 19.6 15.1 21 12 21 C 8.9 21 8.8875 19.6 7.1875 16 C 6.4758784 15.733142 5.7121819 14.684664 6.25 13.46875 z"/>
</svg>
